<svg width="35" height="35" viewBox="0 0 35 35" fill="none" xmlns="http://www.w3.org/2000/svg">
<path d="M17.5 8.60416C17.9022 8.60416 18.3004 8.68338 18.6719 8.83728C19.0435 8.99119 19.3811 9.21677 19.6655 9.50115C19.9499 9.78553 20.1755 10.1231 20.3294 10.4947C20.4833 10.8663 20.5625 11.2645 20.5625 11.6667C20.5625 12.0688 20.4833 12.4671 20.3294 12.8386C20.1755 13.2102 19.9499 13.5478 19.6655 13.8322C19.3811 14.1166 19.0435 14.3421 18.6719 14.496C18.3004 14.6499 17.9022 14.7292 17.5 14.7292C16.6878 14.7292 15.9088 14.4065 15.3345 13.8322C14.7601 13.2578 14.4375 12.4789 14.4375 11.6667C14.4375 10.8544 14.7601 10.0755 15.3345 9.50115C15.9088 8.92682 16.6878 8.60416 17.5 8.60416ZM17.5 21.7292C21.8312 21.7292 26.3958 23.8583 26.3958 24.7917V26.3958H8.60415V24.7917C8.60415 23.8583 13.1687 21.7292 17.5 21.7292ZM17.5 5.83333C14.2771 5.83333 11.6666 8.44374 11.6666 11.6667C11.6666 14.8896 14.2771 17.5 17.5 17.5C20.7229 17.5 23.3333 14.8896 23.3333 11.6667C23.3333 8.44374 20.7229 5.83333 17.5 5.83333ZM17.5 18.9583C13.6062 18.9583 5.83331 20.9125 5.83331 24.7917V29.1667H29.1666V24.7917C29.1666 20.9125 21.3937 18.9583 17.5 18.9583Z" fill="#7A7A7A"/>
</svg>
