<svg width="50" height="50" viewBox="0 0 50 50" fill="none" xmlns="http://www.w3.org/2000/svg">
<path d="M23.6761 37H15.0739V13.7273H23.6648C26.036 13.7273 28.0777 14.1932 29.7898 15.125C31.5095 16.0492 32.8352 17.3826 33.767 19.125C34.6989 20.8598 35.1648 22.9356 35.1648 25.3523C35.1648 27.7765 34.6989 29.8598 33.767 31.6023C32.8428 33.3447 31.5208 34.6818 29.8011 35.6136C28.0814 36.5379 26.0398 37 23.6761 37ZM20.6989 32.2045H23.4602C24.7633 32.2045 25.8655 31.9848 26.767 31.5455C27.6761 31.0985 28.3617 30.375 28.8239 29.375C29.2936 28.3674 29.5284 27.0265 29.5284 25.3523C29.5284 23.678 29.2936 22.3447 28.8239 21.3523C28.3542 20.3523 27.661 19.6326 26.7443 19.1932C25.8352 18.7462 24.714 18.5227 23.3807 18.5227H20.6989V32.2045Z" fill="#2A2937"/>
<circle cx="41" cy="33" r="4" fill="#F56F69"/>
</svg>
